<svg version="1.1" xmlns="http://www.w3.org/2000/svg" viewBox="-227.000001 -12.094246851089027 454.00000200000005 24.18849370217805" fill="none" stroke="black" stroke-width="0.6%" vector-effect="non-scaling-stroke">
    <path d="M 182.8379 9.19987 A 226 4.59559 180 0 0 226 6.49866 L 226 -6.49866 A 226 4.59559 360 0 1 182.8379 -3.79744 A 226 4.59559 360 0 1 -226 -6.49866 A 226 4.59559 360 0 1 226 -6.49866" />
    <path d="M -226 6.49866 A 226 4.59559 180 0 0 182.8379 9.19987" />
    <path d="M 20.22543 -6.19985 A 25 0.50836 360 0 1 -25 -6.49866 A 25 0.50836 360 0 1 25 -6.49866 A 25 0.50836 360 0 1 20.22543 -6.19985 Z" />
    <path d="M -226 6.49866 L -226 -6.49866" />
</svg>