<svg version="1.1" xmlns="http://www.w3.org/2000/svg" viewBox="-230.1629098610495 -13.997851442738144 553.9224343064479 26.111386795859904" fill="none" stroke="black" stroke-width="0.6%" vector-effect="non-scaling-stroke">
    <path d="M -7.00074 -12.85409 L 139.48874 -9.96272" />
    <path d="M -7.00074 -10.98298 L -7.00074 -12.85409" />
    <path d="M 222.83709 6.56363 A 226 4.5499 360 1 1 -229.16291 6.56363 L -229.16291 -6.43373 A 226 4.5499 360 0 1 139.48874 -9.96272" />
    <path d="M 222.83709 4.67975 L 315.75878 6.51382 L 322.75952 6.37006 L 322.75952 -6.62731 L 0.00001 -12.99785 L -7.00074 -12.85409" />
    <path d="M 169.2693 -9.37492 A 226 4.5499 360 0 1 222.83709 -6.43373 A 226 4.5499 360 0 1 -229.16291 -6.43373" />
    <path d="M 169.2693 -9.37492 L 315.75878 -6.48355 L 322.75952 -6.62731" />
    <path d="M 14.68883 -6.08138 A 25 0.50331 360 0 1 -28.16291 -6.43373 A 25 0.50331 360 1 1 21.83709 -6.43373 A 25 0.50331 360 0 1 14.68883 -6.08138 Z" />
    <path d="M 315.75878 6.51382 L 315.75878 -6.48355" />
    <path d="M 222.83709 6.56363 L 222.83709 -6.43373" />
</svg>