<svg version="1.1" xmlns="http://www.w3.org/2000/svg" viewBox="-313.99596328568293 -13.505630196994781 718.4647066056539 25.61087238262185" fill="none" stroke="black" stroke-width="0.6%" vector-effect="non-scaling-stroke">
    <path d="M 42.30839 -12.50563 L -137.86331 -8.79975" />
    <path d="M 89.28851 -3.20237 A 226 3.49815 360 0 1 -312.99596 -5.39136 A 226 3.49815 360 0 1 -137.86331 -8.79975" />
    <path d="M 89.28851 -3.20237 L 131.68354 -2.70855 L 403.46874 -8.29879 L 42.30839 -12.50563" />
    <path d="M -72.02837 -5.08141 A 25 0.38696 360 0 1 -111.99596 -5.39136 A 25 0.38696 360 0 1 -110.38168 -5.52815 L -72.02837 -5.08141 Z" />
    <path d="M 403.46874 4.69966 L 403.46874 -8.29879" />
    <path d="M 131.68354 10.2899 L 131.68354 -2.70855" />
    <path d="M 131.68354 10.2899 L 403.46874 4.69966" />
    <path d="M 89.28851 9.79607 L 131.68354 10.2899" />
    <path d="M 89.28851 9.79607 L 89.28851 -3.20237" />
    <path d="M -312.99596 7.60709 A 226 3.49815 180 0 0 89.28851 9.79607" />
    <path d="M -110.38168 -5.25456 L -110.38168 -5.52815" />
    <path d="M -312.99596 7.60709 L -312.99596 -5.39136" />
</svg>