<svg version="1.1" xmlns="http://www.w3.org/2000/svg" viewBox="-229.78608248982547 -12.111194404284179 455.4578862449945 24.108098104741323" fill="none" stroke="black" stroke-width="0.6%" vector-effect="non-scaling-stroke">
    <path d="M -99.27468 -10.80674 L -94.85372 -10.71606" />
    <path d="M -99.27468 -10.67515 L -99.27468 -10.80674" />
    <path d="M 201.97408 8.36954 A 226 4.55537 360 0 1 -228.78608 6.44153 L -228.78608 -6.55582 A 226 4.55537 360 0 1 -94.85372 -10.71606" />
    <path d="M 201.97408 8.36954 L 217.53936 8.6888 L 224.6718 8.54752 L 224.6718 -4.44984 L 206.29938 -4.82668" />
    <path d="M 201.97408 8.36954 L 201.97408 -4.62782 L 217.53936 -4.30856 L 224.6718 -4.44984" />
    <path d="M 201.97408 -4.62782 A 226 4.55537 360 0 1 -228.78608 -6.55582" />
    <path d="M -92.14224 -10.94802 L -99.27468 -10.80674" />
    <path d="M -84.91415 -10.79976 A 226 4.55537 360 0 1 223.21392 -6.55582 A 226 4.55537 360 0 1 206.29938 -4.82668" />
    <path d="M -84.91415 -10.79976 L -92.14224 -10.94802" />
    <path d="M 14.73682 -6.19641 A 25 0.50391 360 0 1 -27.78608 -6.55582 A 25 0.50391 360 0 1 22.21392 -6.55582 A 25 0.50391 360 0 1 14.73682 -6.19641 Z" />
    <path d="M 217.53936 8.6888 L 217.53936 -4.30856" />
    <path d="M 223.21392 -4.47974 L 223.21392 -6.55582" />
</svg>