<svg version="1.1" xmlns="http://www.w3.org/2000/svg" viewBox="-461.60547657242876 -11.613521979629427 1012.0035333674828 24.214698677733196" fill="none" stroke="black" stroke-width="0.6%" vector-effect="non-scaling-stroke">
    <path d="M -80.18792 7.48467 L -80.18792 -5.51452 L 179.31154 -1.39802 L 549.39806 -4.28445 L 289.89859 -8.40096 L -80.18792 -5.51452" />
    <path d="M 179.31154 11.60118 L 179.31154 -1.39802" />
    <path d="M -80.18792 7.48467 L 179.31154 11.60118 L 549.39806 8.71474 L 549.39806 -4.28445" />
    <path d="M -104.85574 6.95774 A 226 2.51382 180 0 0 -80.18792 6.73501" />
    <path d="M -460.60548 4.89949 A 226 2.51382 180 0 0 -104.85574 6.95774" />
    <path d="M -104.85574 -6.04145 A 226 2.51382 360 0 1 -460.60548 -8.0997 A 226 2.51382 360 0 1 -8.60548 -8.0997 A 226 2.51382 360 0 1 -104.85574 -6.04145 Z" />
    <path d="M -220.25263 -7.87202 A 25 0.27808 360 0 1 -259.60548 -8.0997 A 25 0.27808 360 0 1 -209.60548 -8.0997 A 25 0.27808 360 0 1 -220.25263 -7.87202 Z" />
    <path d="M -8.60548 -6.07282 L -8.60548 -8.0997" />
    <path d="M -460.60548 4.89949 L -460.60548 -8.0997" />
</svg>