<svg version="1.1" xmlns="http://www.w3.org/2000/svg" viewBox="-320.46257091652956 -12.094837001475318 547.3632736283607 26.09161327220032" fill="none" stroke="black" stroke-width="0.6%" vector-effect="non-scaling-stroke">
    <path d="M -319.46257 6.49763 L -163.9153 9.66159 A 226 4.59416 180 0 0 -155.89408 9.82474 L 0.05038 12.99678 L 0.05038 2.99884 L -155.89408 -0.17319 A 226 4.59416 180 0 0 -97.16613 0.64754" />
    <path d="M 9.24563 12.80997 L 0.05038 12.99678" />
    <path d="M 9.24563 11.08687 A 226 4.59416 180 0 0 159.65718 9.74621 A 226 4.59416 180 0 0 225.9007 6.49664 L 225.9007 -6.50068 A 226 4.59416 360 0 1 159.65718 -3.25111 A 226 4.59416 360 0 1 -226.0993 -6.50068 A 226 4.59416 360 0 1 225.9007 -6.50068" />
    <path d="M -204.25276 -1.53069 L -310.26733 -3.68711 L -319.46257 -3.5003 L -319.46257 6.49763" />
    <path d="M -163.9153 -0.33635 L -319.46257 -3.5003" />
    <path d="M -163.9153 9.66159 L -163.9153 -0.33635" />
    <path d="M -204.25276 -1.53069 A 226 4.59416 180 0 0 -163.9153 -0.33635" />
    <path d="M -155.89408 9.82474 L -155.89408 -0.17319" />
    <path d="M 17.57288 -6.14121 A 25 0.5082 360 0 1 -25.0993 -6.50068 A 25 0.5082 360 0 1 24.9007 -6.50068 A 25 0.5082 360 0 1 17.57288 -6.14121 Z" />
    <path d="M 9.24563 2.81204 L -97.16613 0.64754" />
    <path d="M 9.24563 12.80997 L 9.24563 2.81204 L 0.05038 2.99884" />
    <path d="M -226.0993 -1.97506 L -226.0993 -6.50068" />
</svg>