<svg version="1.1" xmlns="http://www.w3.org/2000/svg" viewBox="-399.18127718031974 -13.999948070051074 718.3185116847475 27.265981101347016" fill="none" stroke="black" stroke-width="0.6%" vector-effect="non-scaling-stroke">
    <path d="M -398.18128 1.9608 L -398.18128 -11.03865 L -184.27514 -7.38774 L 213.90593 -9.34904 L -0.0002 -12.99995 L -398.18128 -11.03865" />
    <path d="M -184.27514 5.61171 L -184.27514 -7.38774" />
    <path d="M -398.18128 1.9608 L -184.27514 5.61171 L -133.86277 5.3634" />
    <path d="M 213.90593 -4.55129 L 213.90593 -9.34904" />
    <path d="M 199.0903 12.0193 A 226 2.07219 180 0 0 318.13723 10.19385 L 318.13723 -2.80561 A 226 2.07219 360 0 1 199.0903 -0.98015 A 226 2.07219 360 0 1 -133.86277 -2.80561 A 226 2.07219 360 0 1 318.13723 -2.80561" />
    <path d="M -133.86277 10.19385 A 226 2.07219 180 0 0 199.0903 12.0193" />
    <path d="M 103.96832 -2.60368 A 25 0.22922 360 0 1 67.13723 -2.80561 A 25 0.22922 360 0 1 117.13723 -2.80561 A 25 0.22922 360 0 1 103.96832 -2.60368 Z" />
    <path d="M -133.86277 10.19385 L -133.86277 -2.80561" />
</svg>