<svg version="1.1" xmlns="http://www.w3.org/2000/svg" viewBox="-38.15491146048896 -209.08212000731132 405.58530496386385 560.6644529341613" fill="none" stroke="black" stroke-width="0.6%" vector-effect="non-scaling-stroke">
    <path d="M -10.43812 -194.22784 L -10.43812 -205.94693 L 135.39069 -94.63956" />
    <path d="M -10.43812 -194.22784 L 123.97345 -91.63495" />
    <path d="M 144.46712 -96.48638 L -1.73948 -208.08212 L -10.43812 -205.94693" />
    <path d="M 138.88073 -92.30229 A 226 196.49886 105.30213 0 1 227.37831 -91.4766 L 221.18403 -93.17142 A 226 196.49886 285.30213 0 0 132.68645 -93.9971 A 226 196.49886 285.30213 0 0 101.89717 342.8041" />
    <path d="M 227.37831 -91.4766 A 226 196.49886 105.30213 0 1 108.09145 344.49891 L 101.89717 342.8041" />
    <path d="M 108.09145 344.49891 A 226 196.49886 105.30213 0 1 138.88073 -92.30229" />
</svg>