<svg version="1.1" xmlns="http://www.w3.org/2000/svg" viewBox="-230.64309116138298 -13.993909888803211 554.8795637662154 26.10641591245626" fill="none" stroke="black" stroke-width="0.6%" vector-effect="non-scaling-stroke">
    <path d="M -6.79374 -10.97048 L -6.79374 -12.85024 L 316.24196 -6.495 L 323.23647 -6.63866 L 0.20077 -12.99391 L -6.79374 -12.85024" />
    <path d="M 316.24196 6.50238 L 316.24196 -6.495" />
    <path d="M 222.35691 4.65533 L 316.24196 6.50238 L 323.23647 6.35871 L 323.23647 -6.63866" />
    <path d="M 157.87476 9.7471 A 226 4.54303 180 0 0 222.35691 6.56948 L 222.35691 -6.4279 A 226 4.54303 0 0 1 157.87476 -3.25027 A 226 4.54303 0 0 1 -229.64309 -6.4279 A 226 4.54303 0 1 1 222.35691 -6.4279" />
    <path d="M -229.64309 6.56948 A 226 4.54303 180 0 0 157.87476 9.7471" />
    <path d="M 14.22393 -6.07639 A 25 0.50255 0 0 1 -28.64309 -6.4279 A 25 0.50255 0 1 1 21.35691 -6.4279 A 25 0.50255 0 0 1 14.22393 -6.07639 Z" />
    <path d="M -229.64309 6.56948 L -229.64309 -6.4279" />
</svg>