<svg version="1.1" xmlns="http://www.w3.org/2000/svg" viewBox="-91.39006009870451 -13.993212817661423 454.00000200000005 27.37242382607581" fill="none" stroke="black" stroke-width="0.6%" vector-effect="non-scaling-stroke">
    <path d="M -11.28372 -4.51299 L -11.28372 -12.95991 L 142.52265 -8.80014 L 151.92589 -8.83344 L -1.88048 -12.99321 L -11.28372 -12.95991" />
    <path d="M 142.52265 -5.0429 L 142.52265 -8.80014" />
    <path d="M 151.92589 -5.03816 L 151.92589 -8.83344" />
    <path d="M 212.51312 12.24721 A 226 2.21188 180 0 0 361.60994 10.16733 L 361.60994 -2.83205 A 226 2.21188 360 0 1 212.51312 -0.75216 A 226 2.21188 360 0 1 -90.39006 -2.83205 A 226 2.21188 360 0 1 361.60994 -2.83205" />
    <path d="M -90.39006 10.16733 A 226 2.21188 180 0 0 212.51312 12.24721" />
    <path d="M 144.11693 -2.60197 A 25 0.24468 360 0 1 110.60994 -2.83205 A 25 0.24468 360 0 1 160.60994 -2.83205 A 25 0.24468 360 0 1 144.11693 -2.60197 Z" />
    <path d="M -90.39006 10.16733 L -90.39006 -2.83205" />
</svg>